<svg width="21" height="20" viewBox="0 0 21 20" fill="none" xmlns="http://www.w3.org/2000/svg">
<path d="M10.535 0.00390865C8.01959 0.00216978 5.59534 0.946665 3.74309 2.65008C1.89083 4.3535 0.745856 6.69141 0.535234 9.20018C0.324613 11.7089 1.06373 14.2053 2.606 16.1942C4.14827 18.1831 6.38104 19.5192 8.86152 19.9376V12.1403H6.44153V9.33563H8.86152V7.26705C8.8124 6.77663 8.87103 6.2814 9.03331 5.81606C9.19559 5.35071 9.45759 4.92652 9.80095 4.5732C10.1443 4.21989 10.5607 3.94601 11.021 3.77075C11.4812 3.5955 11.9742 3.52311 12.4654 3.55866C13.1876 3.55667 13.9094 3.59387 14.6276 3.67012V6.18054H13.1437C11.9798 6.18054 11.7561 6.73384 11.7561 7.54621V9.33362H14.5322L14.17 12.1393H11.7551V20.0039C14.2774 19.6771 16.5815 18.4037 18.2015 16.4414C19.8214 14.479 20.6363 11.9742 20.4813 9.43341C20.3263 6.89264 19.213 4.5056 17.3666 2.75508C15.5201 1.00456 13.0783 0.0212057 10.535 0.00390865Z" fill="white"/>
</svg>
